HIERARCHY
ROOT SpineBase
{
  OFFSET 0.000000 0.000000 0.000000
  CHANNELS 6 Xposition Yposition Zposition Zrotation Xrotation Yrotation
  JOINT SpineMid
  {
    OFFSET 0.000000 34.555539 0.000000
    CHANNELS 3 Zrotation Xrotation Yrotation
    JOINT SpineShoulder
    {
      OFFSET -0.123107 25.514702 -0.720693
      CHANNELS 3 Zrotation Xrotation Yrotation
      JOINT Neck
      {
        OFFSET -0.102250 8.428170 -0.598142
        CHANNELS 3 Zrotation Xrotation Yrotation
        JOINT Head
        {
          OFFSET 6.390554 10.561291 2.752383
          CHANNELS 3 Zrotation Xrotation Yrotation
          End Site
          {
            OFFSET 0 0 0
          }
        }
      }
      JOINT ShoulderLeft
      {
        OFFSET -6.954385 -5.112245 -15.391279
        CHANNELS 3 Zrotation Xrotation Yrotation
        JOINT ElbowLeft
        {
          OFFSET 10.087365 -21.593216 -6.387377
          CHANNELS 3 Zrotation Xrotation Yrotation
          JOINT WristLeft
          {
            OFFSET 16.375834 -2.639405 11.984437
            CHANNELS 3 Zrotation Xrotation Yrotation
            JOINT HandLeft
            {
              OFFSET 4.211670 -0.372793 7.956555
              CHANNELS 3 Zrotation Xrotation Yrotation
              JOINT HandTipLeft
              {
                OFFSET 5.135303 -1.597983 3.689694
                CHANNELS 3 Zrotation Xrotation Yrotation
                End Site
                {
                  OFFSET 0 0 0
                }
              }
              JOINT ThumbLeft
              {
                OFFSET -1.177791 -2.740200 0.553445
                CHANNELS 3 Zrotation Xrotation Yrotation
                End Site
                {
                  OFFSET 0 0 0
                }
              }
            }
          }
        }
      }
      JOINT ShoulderRight
      {
        OFFSET 9.798488 -4.934584 12.627276
        CHANNELS 3 Zrotation Xrotation Yrotation
        JOINT ElbowRight
        {
          OFFSET 9.767134 -27.746076 -2.028686
          CHANNELS 3 Zrotation Xrotation Yrotation
          JOINT WristRight
          {
            OFFSET 16.566598 8.895072 15.033386
            CHANNELS 3 Zrotation Xrotation Yrotation
            JOINT HandRight
            {
              OFFSET 5.673999 -0.512351 2.239335
              CHANNELS 3 Zrotation Xrotation Yrotation
              JOINT HandTipRight
              {
                OFFSET 3.842004 0.375408 2.074339
                CHANNELS 3 Zrotation Xrotation Yrotation
                End Site
                {
                  OFFSET 0 0 0
                }
              }
              JOINT ThumbRight
              {
                OFFSET -3.350224 3.046577 1.146097
                CHANNELS 3 Zrotation Xrotation Yrotation
                End Site
                {
                  OFFSET 0 0 0
                }
              }
            }
          }
        }
      }
    }
  }
  JOINT HipLeft
  {
    OFFSET -4.252197 0.443012 -5.018817
    CHANNELS 3 Zrotation Xrotation Yrotation
    JOINT KneeLeft
    {
      OFFSET -5.254575 -38.581278 -2.652909
      CHANNELS 3 Zrotation Xrotation Yrotation
      JOINT AnkleLeft
      {
        OFFSET -8.872096 -37.503115 3.588440
        CHANNELS 3 Zrotation Xrotation Yrotation
        JOINT FootLeft
        {
          OFFSET 9.435458 -4.364502 -8.306570
          CHANNELS 3 Zrotation Xrotation Yrotation
          End Site
          {
            OFFSET 0 0 0
          }
        }
      }
    }
  }
  JOINT HipRight
  {
    OFFSET 3.372776 1.471905 -2.431637
    CHANNELS 3 Zrotation Xrotation Yrotation
    JOINT KneeRight
    {
      OFFSET 2.879396 -30.944980 -0.753427
      CHANNELS 3 Zrotation Xrotation Yrotation
      JOINT AnkleRight
      {
        OFFSET -10.282011 -41.331544 20.735935
        CHANNELS 3 Zrotation Xrotation Yrotation
        JOINT FootRight
        {
          OFFSET 10.082500 -4.119750 -9.246371
          CHANNELS 3 Zrotation Xrotation Yrotation
          End Site
          {
            OFFSET 0 0 0
          }
        }
      }
    }
  }
}
MOTION
Frames: 6
Frame Time: 0.033333
24.840719 82.988025 309.180116 -3.271173 -1.672386 -50.247655 1.457211 -1.132971 50.053188 0.017223 -0.935038 -0.198969 8.856729 -0.873286 1.811741 0.000000 0.000000 0.000000 44.384684 -12.781003 -15.523597 -35.744382 -1.564319 9.435839 1.041198 1.060787 39.212727 -1.313398 1.357866 -33.418894 0.000000 0.000000 0.000000 0.000000 0.000000 0.000000 12.656274 44.241365 9.362257 16.138937 -57.094726 -33.984699 -7.699213 -7.771826 1.769960 30.176144 6.182961 17.346414 0.000000 0.000000 0.000000 0.000000 0.000000 0.000000 4.031967 4.815211 49.959750 -0.971811 -3.463908 1.465735 -2.873474 4.673810 -0.576783 0.000000 0.000000 0.000000 16.764812 1.962114 47.945013 -12.665867 17.207556 0.811745 -18.050596 -23.668515 -7.121806 0.000000 0.000000 0.000000
24.846865 83.116636 309.010594 -3.630704 -2.505290 -49.545774 1.486542 -1.342609 49.295796 0.033114 -0.943011 -0.230044 10.260050 -0.791602 2.049983 0.000000 0.000000 0.000000 49.972252 -14.392388 -17.304276 -35.669634 -4.785166 10.374384 -6.164471 5.043040 34.734314 0.158319 -1.135779 -27.321181 0.000000 0.000000 0.000000 0.000000 0.000000 0.000000 14.854536 54.805316 10.897579 8.325904 -55.015092 -60.125075 -40.999471 -21.939979 -28.455598 85.459023 39.205926 23.357849 0.000000 0.000000 0.000000 0.000000 0.000000 0.000000 2.816396 5.941207 49.154688 -0.363957 -5.141966 1.813688 -3.411803 5.440911 -0.259738 0.000000 0.000000 0.000000 20.375876 0.169600 46.741818 -14.408381 22.115776 1.963636 -22.759120 -27.651493 -11.094293 0.000000 0.000000 0.000000
25.080294 83.300247 308.906838 -3.777432 -3.385972 -48.551570 1.221487 -1.439232 48.262098 -0.000575 -0.818153 -0.249000 10.431965 -0.489714 2.264238 0.000000 0.000000 0.000000 53.349826 -17.012901 -18.445373 -29.807936 -7.705265 11.737878 -12.653034 1.693336 6.287044 14.425716 -1.077983 2.700019 0.000000 0.000000 0.000000 0.000000 0.000000 0.000000 15.550713 61.872908 12.417818 9.561844 -42.271655 -82.765596 -125.130552 -21.171793 -44.072544 179.426880 -0.620405 19.525824 0.000000 0.000000 0.000000 0.000000 0.000000 0.000000 1.264628 6.640801 48.158340 0.573737 -6.464144 2.058172 -3.699388 5.696820 -0.753397 0.000000 0.000000 0.000000 21.329982 -0.598954 45.507551 -13.921026 22.827014 2.850196 -23.408669 -26.159942 -12.850274 0.000000 0.000000 0.000000
25.409454 84.084473 309.121656 -3.917180 -4.039823 -47.326634 0.894752 -1.375627 47.010015 0.015076 -0.749542 -0.261424 11.628767 -1.838613 3.109997 0.000000 0.000000 0.000000 54.193673 -17.881292 -18.842409 -16.633347 -12.219060 12.329986 -27.311574 3.685158 -11.188715 36.268167 -0.609548 13.667301 0.000000 0.000000 0.000000 0.000000 0.000000 0.000000 15.940513 66.249072 13.458942 19.322156 -23.763535 -101.564156 -105.340775 -22.577919 -69.911047 -178.688626 7.731762 3.233389 0.000000 0.000000 0.000000 0.000000 0.000000 0.000000 0.356666 7.152608 46.944692 1.097128 -7.014345 2.137050 -3.801641 5.595580 -1.084117 0.000000 0.000000 0.000000 20.336399 -1.201255 44.326352 -10.263337 21.346945 3.366518 -20.507458 -20.304943 -11.246221 0.000000 0.000000 0.000000
25.756888 84.350031 309.777604 -4.041181 -4.714580 -45.182897 0.581884 -1.186137 44.841319 -0.141930 -0.360198 -0.254831 12.655715 -2.939587 3.670690 0.000000 0.000000 0.000000 55.259181 -16.559566 -18.819882 -3.589306 -17.320522 14.905566 -38.575044 3.087245 -18.058167 63.630785 1.904031 13.459458 0.000000 0.000000 0.000000 0.000000 0.000000 0.000000 15.822751 66.940134 14.006035 26.771162 11.381725 -113.808339 -81.605956 -24.294450 -68.406242 165.325774 -1.962103 -24.336434 0.000000 0.000000 0.000000 0.000000 0.000000 0.000000 0.246398 7.424064 44.811117 1.028808 -5.721739 1.769937 -3.706473 4.388726 -0.878650 0.000000 0.000000 0.000000 21.247988 -2.832531 42.135007 -8.009930 23.541025 3.968625 -14.625804 -13.752602 -7.654628 0.000000 0.000000 0.000000
25.919895 83.616658 310.744335 -4.147473 -5.145586 -41.399455 0.253394 -0.757897 41.047971 -0.304655 0.008692 -0.237668 12.567845 -3.860300 4.166576 0.000000 0.000000 0.000000 56.315088 -13.884072 -18.434693 5.844296 -21.540717 18.705325 -40.520341 -1.907966 -14.307909 52.808441 5.573833 8.422401 0.000000 0.000000 0.000000 0.000000 0.000000 0.000000 32.853033 67.770229 2.035036 33.665131 38.778167 -131.209951 -94.836895 -33.523168 -66.558461 88.664354 36.498500 -60.236354 0.000000 0.000000 0.000000 0.000000 0.000000 0.000000 0.990009 7.587293 40.973734 0.380260 -3.316390 1.151439 -3.334943 2.259213 -0.800440 0.000000 0.000000 0.000000 22.654948 -5.833160 38.544107 -6.466919 27.289808 4.280768 -14.084447 -12.665403 -8.362452 0.000000 0.000000 0.000000
